{
  "accessors": [
    {
      "bufferView": 2,
      "componentType": 5126,
      "count": 4184,
      "max": [
        1,
        0.69471299648284912,
        0.11324299871921539
      ],
      "min": [
        -0.71491998434066772,
        0.28699898719787598,
        -0.11327700316905975
      ],
      "type": "VEC3"
    },
    {
      "bufferView": 2,
      "byteOffset": 50208,
      "componentType": 5126,
      "count": 4184,
      "max": [
        1,
        1,
        1
      ],
      "min": [
        -1,
        -1,
        -1
      ],
      "type": "VEC3"
    },
    {
      "bufferView": 3,
      "componentType": 5126,
      "count": 4184,
      "max": [
        1,
        1,
        1,
        1
      ],
      "min": [
        -1,
        -1,
        -1,
        -1
      ],
      "type": "VEC4"
    },
    {
      "bufferView": 1,
      "componentType": 5126,
      "count": 4184,
      "max": [
        0.99349099397659302,
        0.48574098944664001
      ],
      "min": [
        0.50915300846099854,
        0.0080303903669118881
      ],
      "type": "VEC2"
    },
    {
      "bufferView": 0,
      "componentType": 5125,
      "count": 17925,
      "max": [
        4183
      ],
      "min": [
        0
      ],
      "type": "SCALAR"
    },
    {
      "bufferView": 2,
      "byteOffset": 100416,
      "componentType": 5126,
      "count": 36560,
      "max": [
        0.0042056101374328136,
        0.41714799404144287,
        0.52788597345352173
      ],
      "min": [
        -1,
        -0.69471299648284912,
        -0.52788597345352173
      ],
      "type": "VEC3"
    },
    {
      "bufferView": 2,
      "byteOffset": 539136,
      "componentType": 5126,
      "count": 36560,
      "max": [
        1,
        1,
        1
      ],
      "min": [
        -1,
        -1,
        -1
      ],
      "type": "VEC3"
    },
    {
      "bufferView": 3,
      "byteOffset": 66944,
      "componentType": 5126,
      "count": 36560,
      "max": [
        1,
        1,
        1,
        1
      ],
      "min": [
        -1,
        -1,
        -1,
        -1
      ],
      "type": "VEC4"
    },
    {
      "bufferView": 1,
      "byteOffset": 33472,
      "componentType": 5126,
      "count": 36560,
      "max": [
        0.99452000856399536,
        0.99398297071456909
      ],
      "min": [
        0.011505899950861931,
        0.014710400253534317
      ],
      "type": "VEC2"
    },
    {
      "bufferView": 0,
      "byteOffset": 71700,
      "componentType": 5125,
      "count": 132084,
      "max": [
        36559
      ],
      "min": [
        0
      ],
      "type": "SCALAR"
    }
  ],
  "asset": {
    "extras": {
      "author": "Kostroman (https://sketchfab.com/Kostroman)",
      "license": "CC-BY-4.0 (http://creativecommons.org/licenses/by/4.0/)",
      "source": "https://sketchfab.com/3d-models/ball-valve-4e3ad853ade140eba4f6f88830718ab3",
      "title": "Ball valve"
    },
    "generator": "Sketchfab-9.69.0",
    "version": "2.0"
  },
  "bufferViews": [
    {
      "buffer": 0,
      "byteLength": 600036,
      "byteOffset": 0,
      "name": "floatBufferViews",
      "target": 34963
    },
    {
      "buffer": 0,
      "byteLength": 325952,
      "byteOffset": 600036,
      "byteStride": 8,
      "name": "floatBufferViews",
      "target": 34962
    },
    {
      "buffer": 0,
      "byteLength": 977856,
      "byteOffset": 925988,
      "byteStride": 12,
      "name": "floatBufferViews",
      "target": 34962
    },
    {
      "buffer": 0,
      "byteLength": 651904,
      "byteOffset": 1903844,
      "byteStride": 16,
      "name": "floatBufferViews",
      "target": 34962
    }
  ],
  "buffers": [
    {
      "byteLength": 2555748,
      "uri": "scene.bin"
    }
  ],
  "images": [
    {
      "uri": "textures/Metallic_baseColor.jpeg"
    },
    {
      "uri": "textures/Metallic_metallicRoughness.png"
    },
    {
      "uri": "textures/Metallic_normal.png"
    }
  ],
  "materials": [
    {
      "doubleSided": false,
      "name": "Metallic",
      "normalTexture": {
        "index": 2,
        "scale": 1,
        "texCoord": 0
      },
      "occlusionTexture": {
        "index": 1,
        "strength": 1,
        "texCoord": 0
      },
      "pbrMetallicRoughness": {
        "baseColorFactor": [
          1,
          1,
          1,
          1
        ],
        "baseColorTexture": {
          "index": 0,
          "texCoord": 0
        },
        "metallicFactor": 1,
        "metallicRoughnessTexture": {
          "index": 1,
          "texCoord": 0
        },
        "roughnessFactor": 0.96845758167192608
      }
    }
  ],
  "meshes": [
    {
      "name": "defaultMaterial",
      "primitives": [
        {
          "attributes": {
            "NORMAL": 1,
            "POSITION": 0,
            "TANGENT": 2,
            "TEXCOORD_0": 3
          },
          "indices": 4,
          "material": 0,
          "mode": 4
        }
      ]
    },
    {
      "name": "defaultMaterial",
      "primitives": [
        {
          "attributes": {
            "NORMAL": 6,
            "POSITION": 5,
            "TANGENT": 7,
            "TEXCOORD_0": 8
          },
          "indices": 9,
          "material": 0,
          "mode": 4
        }
      ]
    }
  ],
  "nodes": [
    {
      "children": [
        1
      ],
      "name": "RootNode (gltf orientation matrix)",
      "rotation": [
        -0.70710678118654746,
        -0,
        -0,
        0.70710678118654757
      ]
    },
    {
      "children": [
        2
      ],
      "matrix": [
        0.2380952388048172,
        0,
        0,
        0,
        0,
        0.2380952388048172,
        0,
        0,
        0,
        0,
        0.2380952388048172,
        0,
        0,
        1.225854528996706e-09,
        1.1139331235199279e-08,
        1
      ],
      "name": "RootNode (model correction matrix)"
    },
    {
      "children": [
        3,
        5
      ],
      "matrix": [
        1,
        0,
        0,
        0,
        0,
        -4.3711390063094768e-08,
        0.999999999999999,
        0,
        0,
        -0.999999999999999,
        -4.3711390063094768e-08,
        0,
        0,
        0,
        0,
        1
      ],
      "name": "Collada visual scene group"
    },
    {
      "children": [
        4
      ],
      "name": "ventel"
    },
    {
      "mesh": 0,
      "name": "defaultMaterial"
    },
    {
      "children": [
        6
      ],
      "name": "Valve_pipe"
    },
    {
      "mesh": 1,
      "name": "defaultMaterial"
    }
  ],
  "samplers": [
    {
      "magFilter": 9729,
      "minFilter": 9987,
      "wrapS": 10497,
      "wrapT": 10497
    }
  ],
  "scene": 0,
  "scenes": [
    {
      "name": "OSG_Scene",
      "nodes": [
        0
      ]
    }
  ],
  "textures": [
    {
      "sampler": 0,
      "source": 0
    },
    {
      "sampler": 0,
      "source": 1
    },
    {
      "sampler": 0,
      "source": 2
    }
  ]
}

